<svg width="35" height="35" viewBox="0 0 35 35" fill="none" xmlns="http://www.w3.org/2000/svg">
  <path fill-rule="evenodd" clip-rule="evenodd" d="M34.9837 15.1669C34.8743 14.4872 34.7415 13.8152 34.5696 13.1511C34.3509 12.3072 34.0696 11.4712 33.7258 10.6664C33.0304 9.00998 32.0772 7.46294 30.9209 6.08778C29.6708 4.61106 28.1628 3.33748 26.4908 2.36081C24.8422 1.39195 23.0452 0.704375 21.1701 0.32152C20.2012 0.126186 19.2246 0.00898537 18.2323 0.001172C17.4588 -0.00664136 16.6853 0.0246121 15.9196 0.0949324C13.9273 0.290267 11.9583 0.845015 10.1457 1.69667C8.59087 2.43113 7.14543 3.38436 5.86408 4.52511C4.58272 5.66586 3.46544 6.99413 2.56692 8.45523C1.57465 10.0804 0.832401 11.854 0.426117 13.7136C0.097964 15.1982 -0.0582992 16.7296 0.0198324 18.2532C0.0901508 19.7299 0.316732 21.2066 0.762083 22.6209C1.04336 23.5194 1.37932 24.3945 1.80123 25.2462C2.21533 26.0822 2.69975 26.887 3.23885 27.6449C4.31707 29.1528 5.62968 30.4889 7.12981 31.5906C8.66119 32.7235 10.3879 33.5986 12.2005 34.1768C14.0913 34.7785 16.0993 35.0597 18.0839 34.9894C20.0215 34.9269 21.9436 34.5519 23.7562 33.8565C25.4985 33.1845 27.1315 32.2235 28.5613 31.0202C29.2801 30.4108 29.9208 29.7232 30.5224 28.9966C31.1318 28.2621 31.6788 27.4886 32.1319 26.6526C32.5226 25.9337 32.8507 25.1836 33.132 24.4258C33.2726 24.0507 33.4055 23.6757 33.5148 23.285C33.632 22.8709 33.718 22.4412 33.7961 22.0192C33.9133 21.3551 33.9602 20.6675 33.8977 19.9956C33.843 20.2925 33.7961 20.5816 33.7258 20.8707C33.6399 21.2066 33.5305 21.5348 33.4055 21.8552C33.1554 22.5349 32.8429 23.1912 32.546 23.8476C32.1632 24.6836 31.7178 25.4806 31.2334 26.2541C30.9834 26.6526 30.7255 27.0432 30.4443 27.4183C30.163 27.7933 29.8427 28.1527 29.5223 28.5043C28.8816 29.2153 28.1863 29.8482 27.4128 30.4108C26.6236 30.989 25.7876 31.4968 24.9047 31.9188C23.139 32.7782 21.2091 33.2939 19.2558 33.4658C17.2557 33.6377 15.2164 33.4424 13.2944 32.872C11.4661 32.3329 9.73159 31.4578 8.20802 30.3092C6.73134 29.1919 5.44998 27.8168 4.44208 26.2619C3.3873 24.6758 2.66068 22.8865 2.26221 21.0191C2.16064 20.5347 2.08251 20.0346 2.02781 19.5424C1.98094 19.1205 1.94187 18.6907 1.92624 18.261C1.9028 17.3781 1.9575 16.4639 2.09032 15.5888C2.37941 13.6667 3.00446 11.815 3.97329 10.1273C4.83274 8.61931 5.95002 7.25979 7.26263 6.11122C8.57524 4.95485 10.0754 4.02505 11.7005 3.36873C12.6381 2.98588 13.6225 2.7046 14.6226 2.51708C15.1305 2.42332 15.6383 2.34518 16.1462 2.30611C16.3962 2.28267 16.6384 2.28267 16.8884 2.25923C16.99 2.25923 17.0916 2.26705 17.1932 2.26705C18.8886 2.23579 20.5919 2.45457 22.2092 2.96244C23.9515 3.50937 25.5923 4.39228 27.0143 5.54085C28.5066 6.74411 29.7489 8.22865 30.6865 9.90071C31.4834 11.3227 32.0538 12.8542 32.3976 14.4481C32.4757 14.8153 32.5382 15.1825 32.6007 15.5498C32.6554 15.8857 32.8429 16.1983 33.132 16.3858C33.7414 16.7921 34.5931 16.5186 34.89 15.8623C34.9915 15.6357 35.0228 15.3935 34.9837 15.1669Z" fill="black"/>
</svg>